<svg width="358" height="96" viewBox="0 0 358 96" fill="none" xmlns="http://www.w3.org/2000/svg">
<rect x="0.5" y="0.5" width="357" height="95" rx="3.5" fill="#EAF5FF"/>
<rect x="0.5" y="0.5" width="357" height="95" rx="3.5" stroke="#6791BB"/>
<rect x="8" y="8" width="10.2857" height="10.2857" rx="5.14286" fill="#004C97" fill-opacity="0.06"/>
<rect x="8" y="23.4286" width="10.2857" height="10.2857" rx="5.14286" fill="#004C97" fill-opacity="0.06"/>
<rect x="8" y="38.8571" width="10.2857" height="10.2857" rx="5.14286" fill="#004C97" fill-opacity="0.06"/>
<rect x="8" y="54.2857" width="10.2857" height="10.2857" rx="5.14286" fill="#004C97" fill-opacity="0.06"/>
<rect x="8" y="69.7143" width="10.2857" height="10.2857" rx="5.14286" fill="#004C97" fill-opacity="0.06"/>
<rect x="23.4286" y="54.2857" width="10.2857" height="10.2857" rx="5.14286" fill="#004C97" fill-opacity="0.06"/>
<rect x="38.8571" y="38.8571" width="10.2857" height="10.2857" rx="5.14286" fill="#004C97" fill-opacity="0.06"/>
<rect x="54.2857" y="23.4286" width="10.2857" height="10.2857" rx="5.14286" fill="#004C97" fill-opacity="0.06"/>
<rect x="69.7143" y="8" width="10.2857" height="10.2857" rx="5.14286" fill="#004C97" fill-opacity="0.06"/>
<rect x="23.4286" y="38.8571" width="10.2857" height="10.2857" rx="5.14286" fill="#004C97" fill-opacity="0.06"/>
<rect x="23.4286" y="23.4286" width="10.2857" height="10.2857" rx="5.14286" fill="#004C97" fill-opacity="0.06"/>
<rect x="23.4286" y="8" width="10.2857" height="10.2857" rx="5.14286" fill="#004C97" fill-opacity="0.06"/>
<rect x="38.8571" y="8" width="10.2857" height="10.2857" rx="5.14286" fill="#004C97" fill-opacity="0.06"/>
<rect x="38.8571" y="23.4286" width="10.2857" height="10.2857" rx="5.14286" fill="#004C97" fill-opacity="0.06"/>
<rect x="54.2857" y="8" width="10.2857" height="10.2857" rx="5.14286" fill="#004C97" fill-opacity="0.06"/>
<path d="M38.928 74.808H32.256L31.152 78H27.624L33.648 61.224H37.56L43.584 78H40.032L38.928 74.808ZM38.016 72.12L35.592 65.112L33.168 72.12H38.016ZM57.2357 61.248V63.96H52.7717V78H49.4117V63.96H44.9477V61.248H57.2357ZM71.0873 61.248V63.96H66.6233V78H63.2633V63.96H58.7993V61.248H71.0873ZM76.8988 63.96V68.16H82.5388V70.824H76.8988V75.264H83.2588V78H73.5388V61.224H83.2588V63.96H76.8988ZM100.64 78H97.2803L89.6723 66.504V78H86.3123V61.224H89.6723L97.2803 72.744V61.224H100.64V78ZM109.817 61.248C111.577 61.248 113.121 61.592 114.449 62.28C115.793 62.968 116.825 63.952 117.545 65.232C118.281 66.496 118.649 67.968 118.649 69.648C118.649 71.328 118.281 72.8 117.545 74.064C116.825 75.312 115.793 76.28 114.449 76.968C113.121 77.656 111.577 78 109.817 78H103.961V61.248H109.817ZM109.697 75.144C111.457 75.144 112.817 74.664 113.777 73.704C114.737 72.744 115.217 71.392 115.217 69.648C115.217 67.904 114.737 66.544 113.777 65.568C112.817 64.576 111.457 64.08 109.697 64.08H107.321V75.144H109.697ZM131.436 74.808H124.764L123.66 78H120.132L126.156 61.224H130.068L136.092 78H132.54L131.436 74.808ZM130.524 72.12L128.1 65.112L125.676 72.12H130.524ZM152.672 78H149.312L141.704 66.504V78H138.344V61.224H141.704L149.312 72.744V61.224H152.672V78ZM155.176 69.6C155.176 67.952 155.544 66.48 156.28 65.184C157.032 63.872 158.048 62.856 159.328 62.136C160.624 61.4 162.072 61.032 163.672 61.032C165.544 61.032 167.184 61.512 168.592 62.472C170 63.432 170.984 64.76 171.544 66.456H167.68C167.296 65.656 166.752 65.056 166.048 64.656C165.36 64.256 164.56 64.056 163.648 64.056C162.672 64.056 161.8 64.288 161.032 64.752C160.28 65.2 159.688 65.84 159.256 66.672C158.84 67.504 158.632 68.48 158.632 69.6C158.632 70.704 158.84 71.68 159.256 72.528C159.688 73.36 160.28 74.008 161.032 74.472C161.8 74.92 162.672 75.144 163.648 75.144C164.56 75.144 165.36 74.944 166.048 74.544C166.752 74.128 167.296 73.52 167.68 72.72H171.544C170.984 74.432 170 75.768 168.592 76.728C167.2 77.672 165.56 78.144 163.672 78.144C162.072 78.144 160.624 77.784 159.328 77.064C158.048 76.328 157.032 75.312 156.28 74.016C155.544 72.72 155.176 71.248 155.176 69.6ZM177.774 63.96V68.16H183.414V70.824H177.774V75.264H184.134V78H174.414V61.224H184.134V63.96H177.774Z" fill="#004C97"/>
<path d="M320.172 50.0007L315.222 45.0509L316.636 43.6367L323 50.0007L316.636 56.3646L315.222 54.9504L320.172 50.0007Z" fill="#004C97"/>
</svg>
