<svg width="390" height="139" viewBox="0 0 390 139" fill="none" xmlns="http://www.w3.org/2000/svg">
<g clip-path="url(#clip0_120_676)">
<rect width="390" height="139" fill="url(#paint0_linear_120_676)"/>
<g opacity="0.4">
<path d="M25.5356 82.3335C24.9879 82.333 24.4501 82.1858 23.9759 81.9066C23.5018 81.6275 23.1081 81.2263 22.8344 80.7432C22.5607 80.2602 22.4165 79.7123 22.4164 79.1546C22.4163 78.5969 22.5602 78.049 22.8337 77.5658L56.1311 18.8391C56.3359 18.4778 56.6086 18.1611 56.9336 17.9072C57.2587 17.6532 57.6296 17.467 58.0253 17.3591C58.421 17.2511 58.8337 17.2237 59.2399 17.2782C59.646 17.3327 60.0377 17.4682 60.3924 17.6769C61.1084 18.0986 61.6309 18.7924 61.8451 19.606C62.0593 20.4196 61.9476 21.2866 61.5347 22.0165L28.2385 80.7432C27.9649 81.2267 27.5709 81.6283 27.0964 81.9075C26.6219 82.1867 26.0836 82.3336 25.5356 82.3335Z" fill="#C1C1C1" fill-opacity="0.55"/>
<path d="M48.6891 98.1642C48.1418 98.1635 47.6043 98.0162 47.1305 97.7372C46.6566 97.4582 46.2632 97.0572 45.9895 96.5745C45.7158 96.0918 45.5716 95.5443 45.5712 94.9869C45.5708 94.4295 45.7143 93.8818 45.9873 93.3987L56.1289 75.5078C56.5476 74.7882 57.2281 74.2658 58.0227 74.054C58.8172 73.8421 59.6618 73.9579 60.3731 74.3761C61.0844 74.7944 61.6051 75.4814 61.8221 76.2881C62.0392 77.0948 61.9351 77.9561 61.5325 78.6851L51.3931 96.5739C51.1191 97.0574 50.725 97.4589 50.2504 97.738C49.7757 98.0172 49.2372 98.1642 48.6891 98.1642Z" fill="#C1C1C1" fill-opacity="0.55"/>
<path d="M25.5355 139C24.9878 139 24.4497 138.854 23.9753 138.575C23.5008 138.297 23.1069 137.896 22.833 137.413C22.5591 136.93 22.4149 136.382 22.415 135.824C22.4152 135.266 22.5596 134.718 22.8337 134.236L38.032 107.433C38.455 106.723 39.1343 106.21 39.9244 106.003C40.7145 105.797 41.5526 105.914 42.2592 106.329C42.9657 106.744 43.4845 107.424 43.7044 108.224C43.9243 109.024 43.8278 109.88 43.4357 110.608L28.2385 137.413C27.9647 137.896 27.5707 138.297 27.0961 138.576C26.6216 138.854 26.0833 139.001 25.5355 139Z" fill="#C1C1C1" fill-opacity="0.55"/>
<path d="M67.5457 65.0809C66.9991 65.0816 66.4621 64.9346 65.9894 64.655C65.2732 64.2337 64.7506 63.5401 64.5364 62.7265C64.3222 61.913 64.4339 61.0462 64.8471 60.3165L98.1434 1.59087C98.3475 1.22915 98.6197 0.912006 98.9444 0.65762C99.2691 0.403235 99.64 0.216604 100.036 0.108432C100.431 0.00026052 100.844 -0.0273292 101.25 0.0272443C101.656 0.0818178 102.048 0.217488 102.403 0.426467C102.757 0.634872 103.068 0.912406 103.318 1.24323C103.567 1.57404 103.75 1.95167 103.857 2.35454C103.963 2.7574 103.99 3.17762 103.937 3.5912C103.883 4.00478 103.751 4.40361 103.546 4.76493L70.2529 63.4928C69.9782 63.9762 69.5834 64.3774 69.1082 64.6562C68.633 64.935 68.0941 65.0814 67.5457 65.0809Z" fill="#C1C1C1" fill-opacity="0.55"/>
<path d="M118.794 67.8368C118.248 67.8375 117.712 67.6901 117.24 67.4097C116.524 66.9891 116.001 66.2959 115.786 65.4827C115.572 64.6695 115.684 63.8029 116.097 63.0735L124.526 48.2047C124.94 47.475 125.621 46.9423 126.42 46.724C127.218 46.5056 128.07 46.6194 128.786 47.0403C129.503 47.4612 130.026 48.1547 130.241 48.9684C130.455 49.782 130.343 50.649 129.93 51.3787L121.5 66.2475C121.226 66.7309 120.831 67.1322 120.356 67.4111C119.881 67.6901 119.342 67.8369 118.794 67.8368Z" fill="#C1C1C1" fill-opacity="0.55"/>
<path d="M5.88562 60.4023C5.33816 60.4019 4.80047 60.2549 4.32646 59.9759C3.85245 59.697 3.45885 59.296 3.18511 58.8132C2.91137 58.3303 2.76713 57.7827 2.76691 57.2252C2.76668 56.6677 2.91044 56.1199 3.18379 55.6369L11.6135 40.7681C12.0278 40.0384 12.7097 39.5062 13.5092 39.2885C14.3087 39.0708 15.1604 39.1853 15.877 39.607C16.2321 39.8157 16.5433 40.0936 16.7929 40.4248C17.0425 40.756 17.2256 41.1341 17.3317 41.5374C17.4377 41.9407 17.4647 42.3613 17.4111 42.7753C17.3575 43.1892 17.2244 43.5883 17.0193 43.9498L8.58962 58.8186C8.31467 59.3007 7.92013 59.7008 7.44557 59.9787C6.97101 60.2567 6.43307 60.4028 5.88562 60.4023Z" fill="#C1C1C1" fill-opacity="0.55"/>
<path d="M93.9307 111.695C93.3833 111.695 92.8456 111.548 92.3715 111.269C91.8975 110.99 91.5038 110.589 91.23 110.106C90.9563 109.624 90.812 109.076 90.8118 108.518C90.8116 107.961 90.9555 107.413 91.2289 106.93L108.512 76.4444C108.926 75.7146 109.607 75.1822 110.406 74.9641C111.206 74.7461 112.057 74.8603 112.774 75.2816C113.49 75.703 114.013 76.3969 114.227 77.2109C114.441 78.0248 114.329 78.892 113.916 79.6217L96.6347 110.108C96.361 110.591 95.9669 110.992 95.4921 111.271C95.0173 111.55 94.4787 111.696 93.9307 111.695Z" fill="#C1C1C1" fill-opacity="0.55"/>
<path d="M81.1348 96.5563C79.1363 96.5563 77.1826 95.9528 75.5209 94.8221C73.8591 93.6914 72.564 92.0842 71.7992 90.2039C71.0344 88.3236 70.8343 86.2545 71.2242 84.2584C71.6141 82.2622 72.5765 80.4287 73.9897 78.9895C75.4029 77.5504 77.2034 76.5703 79.1635 76.1733C81.1237 75.7762 83.1554 75.98 85.0018 76.7589C86.8482 77.5377 88.4264 78.8567 89.5367 80.5489C90.6471 82.2411 91.2397 84.2307 91.2397 86.2659C91.2371 88.9943 90.1717 91.6102 88.2772 93.5394C86.3827 95.4687 83.814 96.5537 81.1348 96.5563ZM81.1348 82.3336C80.3708 82.3342 79.6241 82.5656 78.9891 82.9983C78.3542 83.4311 77.8595 84.0459 77.5676 84.765C77.2757 85.484 77.1996 86.2751 77.3492 87.0382C77.4987 87.8012 77.8671 88.502 78.4077 89.0518C78.9482 89.6017 79.6368 89.976 80.3862 90.1275C81.1357 90.2789 81.9123 90.2006 82.6181 89.9026C83.3239 89.6045 83.927 89.1 84.3513 88.4529C84.7756 87.8058 85.0019 87.0451 85.0017 86.267C85.0015 85.7501 84.9014 85.2383 84.707 84.7607C84.5126 84.2832 84.2277 83.8494 83.8686 83.484C83.5096 83.1187 83.0833 82.8289 82.6142 82.6313C82.1452 82.4337 81.6424 82.3333 81.1348 82.3336Z" fill="#C1C1C1" fill-opacity="0.55"/>
<path d="M10.1006 110.778C8.10262 110.778 6.14964 110.174 4.48859 109.043C2.82754 107.913 1.53301 106.306 0.768627 104.426C0.00424725 102.546 -0.195658 100.478 0.194225 98.4821C0.584108 96.4866 1.54629 94.6536 2.95905 93.2149C4.3718 91.7762 6.17172 90.7964 8.13124 90.3994C10.0908 90.0023 12.1219 90.2059 13.9678 90.9843C15.8137 91.7627 17.3916 93.081 18.5019 94.7726C19.6121 96.4641 20.2049 98.4529 20.2054 100.488C20.2031 103.216 19.1377 105.832 17.2432 107.761C15.3487 109.691 12.7798 110.776 10.1006 110.778ZM10.1006 96.5563C9.33657 96.5565 8.58976 96.7875 7.95466 97.2199C7.31957 97.6523 6.82469 98.2669 6.53257 98.9858C6.24046 99.7047 6.16424 100.496 6.31358 101.259C6.46291 102.022 6.83111 102.722 7.37155 103.272C7.912 103.822 8.6004 104.197 9.34977 104.348C10.0991 104.499 10.8758 104.421 11.5815 104.123C12.2872 103.825 12.8902 103.32 13.3143 102.673C13.7384 102.026 13.9645 101.266 13.9641 100.488C13.9627 99.4447 13.5551 98.445 12.8308 97.7078C12.1065 96.9706 11.1246 96.5572 10.1006 96.5563Z" fill="#C1C1C1" fill-opacity="0.55"/>
</g>
<g opacity="0.4">
<path d="M167.452 121.224C166.905 121.223 166.367 121.079 165.893 120.805C165.418 120.531 165.025 120.138 164.751 119.664C164.477 119.19 164.333 118.653 164.333 118.106C164.333 117.559 164.477 117.022 164.75 116.548L198.048 58.9557C198.253 58.6014 198.525 58.2908 198.85 58.0418C199.175 57.7928 199.546 57.6101 199.942 57.5043C200.338 57.3984 200.75 57.3715 201.157 57.425C201.563 57.4784 201.954 57.6113 202.309 57.8159C203.025 58.2295 203.548 58.9099 203.762 59.7078C203.976 60.5057 203.864 61.3559 203.451 62.0717L170.155 119.664C169.882 120.138 169.488 120.532 169.013 120.806C168.539 121.08 168 121.224 167.452 121.224Z" fill="#C1C1C1" fill-opacity="0.55"/>
<path d="M190.606 136.748C190.058 136.748 189.521 136.603 189.047 136.33C188.573 136.056 188.18 135.663 187.906 135.189C187.632 134.716 187.488 134.179 187.488 133.632C187.487 133.086 187.631 132.549 187.904 132.075L198.046 114.53C198.464 113.824 199.145 113.312 199.939 113.104C200.734 112.896 201.578 113.01 202.29 113.42C203.001 113.83 203.522 114.504 203.739 115.295C203.956 116.086 203.852 116.931 203.449 117.646L193.31 135.189C193.036 135.663 192.642 136.057 192.167 136.33C191.692 136.604 191.154 136.748 190.606 136.748Z" fill="#C1C1C1" fill-opacity="0.55"/>
<path d="M209.462 104.304C208.916 104.305 208.379 104.161 207.906 103.887C207.19 103.473 206.667 102.793 206.453 101.995C206.239 101.198 206.351 100.347 206.764 99.6319L240.06 42.0407C240.264 41.6859 240.536 41.3749 240.861 41.1255C241.186 40.876 241.557 40.693 241.952 40.5869C242.348 40.4808 242.761 40.4537 243.167 40.5073C243.573 40.5608 243.965 40.6938 244.319 40.8988C244.674 41.1031 244.985 41.3753 245.235 41.6997C245.484 42.0242 245.667 42.3945 245.773 42.7896C245.879 43.1847 245.907 43.5968 245.853 44.0024C245.8 44.4079 245.667 44.7991 245.463 45.1534L212.17 102.747C211.895 103.221 211.5 103.614 211.025 103.888C210.55 104.161 210.011 104.305 209.462 104.304Z" fill="#C1C1C1" fill-opacity="0.55"/>
<path d="M260.711 107.007C260.165 107.008 259.628 106.863 259.157 106.588C258.44 106.175 257.918 105.496 257.703 104.698C257.489 103.901 257.6 103.051 258.013 102.336L266.443 87.754C266.856 87.0384 267.537 86.516 268.336 86.3019C269.135 86.0877 269.987 86.1993 270.703 86.6121C271.42 87.0249 271.943 87.705 272.157 88.5029C272.372 89.3008 272.26 90.1511 271.847 90.8667L263.417 105.448C263.142 105.922 262.748 106.316 262.273 106.589C261.798 106.863 261.259 107.007 260.711 107.007Z" fill="#C1C1C1" fill-opacity="0.55"/>
<path d="M147.802 99.716C147.255 99.7156 146.717 99.5714 146.243 99.2978C145.769 99.0243 145.376 98.631 145.102 98.1575C144.828 97.684 144.684 97.147 144.684 96.6002C144.683 96.0535 144.827 95.5163 145.1 95.0426L153.53 80.461C153.944 79.7455 154.626 79.2236 155.426 79.0101C156.225 78.7965 157.077 78.9089 157.794 79.3224C158.149 79.527 158.46 79.7996 158.71 80.1244C158.959 80.4492 159.142 80.82 159.248 81.2155C159.354 81.611 159.381 82.0235 159.328 82.4295C159.274 82.8354 159.141 83.2268 158.936 83.5813L150.506 98.1629C150.231 98.6357 149.837 99.028 149.362 99.3006C148.888 99.5732 148.35 99.7164 147.802 99.716Z" fill="#C1C1C1" fill-opacity="0.55"/>
<path d="M235.847 150.018C235.3 150.017 234.762 149.873 234.288 149.6C233.814 149.326 233.42 148.933 233.147 148.46C232.873 147.986 232.729 147.449 232.728 146.903C232.728 146.356 232.872 145.819 233.146 145.345L250.429 115.448C250.842 114.733 251.524 114.21 252.323 113.996C253.122 113.783 253.974 113.895 254.69 114.308C255.407 114.721 255.93 115.402 256.144 116.2C256.358 116.998 256.246 117.848 255.832 118.564L238.551 148.461C238.278 148.935 237.884 149.329 237.409 149.602C236.934 149.875 236.395 150.019 235.847 150.018Z" fill="#C1C1C1" fill-opacity="0.55"/>
<path d="M223.051 135.172C221.053 135.172 219.099 134.58 217.438 133.471C215.776 132.362 214.481 130.786 213.716 128.942C212.951 127.098 212.751 125.069 213.141 123.111C213.531 121.154 214.493 119.355 215.906 117.944C217.319 116.533 219.12 115.572 221.08 115.182C223.04 114.793 225.072 114.993 226.918 115.757C228.765 116.52 230.343 117.814 231.453 119.473C232.564 121.133 233.156 123.084 233.156 125.08C233.154 127.756 232.088 130.321 230.194 132.213C228.299 134.105 225.731 135.169 223.051 135.172ZM223.051 121.224C222.287 121.224 221.541 121.451 220.906 121.876C220.271 122.3 219.776 122.903 219.484 123.608C219.192 124.313 219.116 125.089 219.266 125.837C219.415 126.586 219.784 127.273 220.324 127.812C220.865 128.351 221.553 128.718 222.303 128.867C223.052 129.015 223.829 128.939 224.535 128.646C225.241 128.354 225.844 127.859 226.268 127.225C226.692 126.59 226.919 125.844 226.918 125.081C226.918 124.574 226.818 124.072 226.624 123.604C226.429 123.136 226.144 122.71 225.785 122.352C225.426 121.994 225 121.709 224.531 121.516C224.062 121.322 223.559 121.223 223.051 121.224Z" fill="#C1C1C1" fill-opacity="0.55"/>
<path d="M152.017 149.118C150.019 149.118 148.066 148.526 146.405 147.417C144.744 146.308 143.45 144.733 142.685 142.889C141.921 141.046 141.721 139.017 142.111 137.06C142.501 135.103 143.463 133.306 144.876 131.895C146.288 130.484 148.088 129.523 150.048 129.134C152.007 128.744 154.039 128.944 155.884 129.707C157.73 130.471 159.308 131.763 160.419 133.422C161.529 135.081 162.122 137.032 162.122 139.027C162.12 141.703 161.054 144.268 159.16 146.16C157.265 148.052 154.696 149.116 152.017 149.118ZM152.017 135.172C151.253 135.172 150.506 135.398 149.871 135.822C149.236 136.246 148.741 136.849 148.449 137.554C148.157 138.259 148.081 139.035 148.23 139.783C148.38 140.531 148.748 141.219 149.288 141.758C149.829 142.297 150.517 142.664 151.266 142.813C152.016 142.961 152.792 142.884 153.498 142.592C154.204 142.3 154.807 141.805 155.231 141.17C155.655 140.536 155.881 139.79 155.881 139.027C155.879 138.004 155.472 137.024 154.747 136.301C154.023 135.578 153.041 135.172 152.017 135.172Z" fill="#C1C1C1" fill-opacity="0.55"/>
</g>
<g opacity="0.4">
<path d="M312.882 137.666C312.334 137.665 311.797 137.521 311.322 137.247C310.848 136.973 310.455 136.58 310.181 136.106C309.907 135.632 309.763 135.095 309.763 134.548C309.763 134.001 309.907 133.464 310.18 132.99L343.478 75.3977C343.682 75.0434 343.955 74.7329 344.28 74.4838C344.605 74.2348 344.976 74.0521 345.372 73.9463C345.767 73.8405 346.18 73.8135 346.586 73.867C346.992 73.9205 347.384 74.0533 347.739 74.258C348.455 74.6715 348.977 75.352 349.192 76.1499C349.406 76.9478 349.294 77.7979 348.881 78.5137L315.585 136.106C315.311 136.58 314.917 136.974 314.443 137.248C313.968 137.522 313.43 137.666 312.882 137.666Z" fill="#C1C1C1" fill-opacity="0.55"/>
<path d="M336.036 153.19C335.488 153.19 334.951 153.045 334.477 152.772C334.003 152.498 333.61 152.105 333.336 151.631C333.062 151.158 332.918 150.621 332.918 150.075C332.917 149.528 333.061 148.991 333.334 148.517L343.475 130.972C343.894 130.266 344.575 129.754 345.369 129.546C346.164 129.338 347.008 129.452 347.72 129.862C348.431 130.272 348.952 130.946 349.169 131.737C349.386 132.528 349.282 133.373 348.879 134.088L338.74 151.631C338.466 152.105 338.071 152.499 337.597 152.773C337.122 153.046 336.584 153.19 336.036 153.19Z" fill="#C1C1C1" fill-opacity="0.55"/>
<path d="M354.892 120.746C354.346 120.747 353.809 120.603 353.336 120.329C352.62 119.915 352.097 119.235 351.883 118.437C351.669 117.64 351.78 116.789 352.194 116.074L385.49 58.4827C385.694 58.128 385.966 57.817 386.291 57.5675C386.616 57.318 386.986 57.135 387.382 57.0289C387.778 56.9228 388.191 56.8958 388.597 56.9493C389.003 57.0028 389.394 57.1359 389.749 57.3408C390.104 57.5452 390.415 57.8174 390.664 58.1418C390.914 58.4662 391.097 58.8365 391.203 59.2316C391.309 59.6267 391.336 60.0388 391.283 60.4444C391.23 60.85 391.097 61.2411 390.892 61.5955L357.599 119.189C357.325 119.663 356.93 120.056 356.455 120.33C355.98 120.603 355.441 120.747 354.892 120.746Z" fill="#C1C1C1" fill-opacity="0.55"/>
<path d="M293.232 116.158C292.685 116.158 292.147 116.013 291.673 115.74C291.199 115.466 290.805 115.073 290.532 114.6C290.258 114.126 290.114 113.589 290.113 113.042C290.113 112.496 290.257 111.958 290.53 111.485L298.96 96.9031C299.374 96.1876 300.056 95.6656 300.856 95.4521C301.655 95.2386 302.507 95.3509 303.223 95.7644C303.579 95.9691 303.89 96.2416 304.139 96.5665C304.389 96.8913 304.572 97.262 304.678 97.6576C304.784 98.0531 304.811 98.4656 304.758 98.8715C304.704 99.2774 304.571 99.6689 304.366 100.023L295.936 114.605C295.661 115.078 295.267 115.47 294.792 115.743C294.318 116.015 293.78 116.158 293.232 116.158Z" fill="#C1C1C1" fill-opacity="0.55"/>
<path d="M381.277 166.46C380.73 166.459 380.192 166.315 379.718 166.042C379.244 165.768 378.85 165.375 378.577 164.902C378.303 164.428 378.159 163.891 378.158 163.345C378.158 162.798 378.302 162.261 378.575 161.787L395.858 131.89C396.272 131.175 396.954 130.652 397.753 130.439C398.552 130.225 399.404 130.337 400.12 130.75C400.837 131.163 401.36 131.844 401.574 132.642C401.788 133.44 401.676 134.291 401.262 135.006L383.981 164.903C383.708 165.377 383.313 165.771 382.839 166.044C382.364 166.317 381.825 166.461 381.277 166.46Z" fill="#C1C1C1" fill-opacity="0.55"/>
<path d="M368.481 151.614C366.483 151.614 364.529 151.022 362.867 149.913C361.206 148.804 359.91 147.228 359.146 145.384C358.381 143.54 358.181 141.511 358.571 139.553C358.961 137.596 359.923 135.798 361.336 134.386C362.749 132.975 364.55 132.014 366.51 131.624C368.47 131.235 370.502 131.435 372.348 132.199C374.195 132.962 375.773 134.256 376.883 135.915C377.994 137.575 378.586 139.526 378.586 141.522C378.584 144.198 377.518 146.763 375.624 148.655C373.729 150.547 371.16 151.611 368.481 151.614ZM368.481 137.666C367.717 137.666 366.971 137.893 366.336 138.318C365.701 138.742 365.206 139.345 364.914 140.05C364.622 140.755 364.546 141.531 364.696 142.279C364.845 143.028 365.214 143.715 365.754 144.254C366.295 144.793 366.983 145.16 367.733 145.309C368.482 145.457 369.259 145.381 369.965 145.088C370.67 144.796 371.273 144.301 371.698 143.667C372.122 143.032 372.348 142.286 372.348 141.523C372.348 141.016 372.248 140.514 372.053 140.046C371.859 139.578 371.574 139.152 371.215 138.794C370.856 138.436 370.43 138.151 369.961 137.958C369.492 137.764 368.989 137.665 368.481 137.666Z" fill="#C1C1C1" fill-opacity="0.55"/>
</g>
<g opacity="0.4">
<path d="M290.466 33.1454C289.918 33.1449 289.38 33.0005 288.906 32.7268C288.432 32.453 288.038 32.0596 287.765 31.5859C287.491 31.1122 287.347 30.5749 287.347 30.0279C287.346 29.481 287.49 28.9437 287.764 28.4698L321.061 -29.1224C321.266 -29.4767 321.539 -29.7873 321.864 -30.0363C322.189 -30.2854 322.56 -30.468 322.955 -30.5738C323.351 -30.6797 323.764 -30.7066 324.17 -30.6532C324.576 -30.5997 324.968 -30.4668 325.323 -30.2622C326.039 -29.8486 326.561 -29.1682 326.775 -28.3703C326.989 -27.5724 326.878 -26.7222 326.465 -26.0064L293.169 31.5858C292.895 32.06 292.501 32.4538 292.027 32.7276C291.552 33.0014 291.014 33.1455 290.466 33.1454Z" fill="#C1C1C1" fill-opacity="0.55"/>
<path d="M313.619 48.6703C313.072 48.6696 312.534 48.5252 312.061 48.2515C311.587 47.9779 311.193 47.5847 310.92 47.1113C310.646 46.6379 310.502 46.101 310.501 45.5544C310.501 45.0078 310.644 44.4707 310.917 43.9969L321.059 26.4516C321.478 25.7459 322.158 25.2336 322.953 25.0259C323.747 24.8181 324.592 24.9316 325.303 25.3418C326.015 25.7519 326.535 26.4257 326.752 27.2168C326.969 28.0079 326.865 28.8526 326.463 29.5675L316.323 47.1107C316.049 47.5849 315.655 47.9786 315.181 48.2524C314.706 48.5261 314.167 48.6703 313.619 48.6703Z" fill="#C1C1C1" fill-opacity="0.55"/>
<path d="M290.466 88.7172C289.918 88.7177 289.38 88.5741 288.905 88.3008C288.431 88.0275 288.037 87.6343 287.763 87.1606C287.489 86.687 287.345 86.1496 287.345 85.6027C287.345 85.0557 287.49 84.5184 287.764 84.0449L302.962 57.7603C303.385 57.0638 304.064 56.5603 304.855 56.3579C305.645 56.1554 306.483 56.27 307.189 56.6772C307.896 57.0843 308.415 57.7516 308.635 58.5361C308.854 59.3205 308.758 60.1598 308.366 60.8741L293.169 87.1609C292.895 87.6347 292.501 88.028 292.026 88.3013C291.552 88.5745 291.013 88.718 290.466 88.7172Z" fill="#C1C1C1" fill-opacity="0.55"/>
<path d="M332.476 16.2261C331.929 16.2268 331.392 16.0826 330.92 15.8084C330.203 15.3953 329.681 14.715 329.467 13.9172C329.252 13.1194 329.364 12.2693 329.777 11.5538L363.074 -46.0374C363.278 -46.3922 363.55 -46.7032 363.875 -46.9526C364.199 -47.2021 364.57 -47.3851 364.966 -47.4912C365.362 -47.5973 365.774 -47.6244 366.18 -47.5708C366.587 -47.5173 366.978 -47.3843 367.333 -47.1793C367.688 -46.975 367.999 -46.7028 368.248 -46.3784C368.498 -46.0539 368.681 -45.6836 368.787 -45.2885C368.893 -44.8934 368.92 -44.4813 368.867 -44.0757C368.814 -43.6702 368.681 -43.279 368.476 -42.9247L335.183 14.6687C334.908 15.1427 334.514 15.5362 334.038 15.8096C333.563 16.083 333.024 16.2266 332.476 16.2261Z" fill="#C1C1C1" fill-opacity="0.55"/>
<path d="M383.724 18.9287C383.178 18.9294 382.642 18.7849 382.17 18.51C381.454 18.0974 380.931 17.4176 380.717 16.6202C380.502 15.8227 380.614 14.9728 381.027 14.2575L389.456 -0.324098C389.87 -1.03973 390.551 -1.56207 391.35 -1.77622C392.149 -1.99038 393 -1.87879 393.717 -1.46601C394.433 -1.05324 394.956 -0.373085 395.171 0.424819C395.385 1.22272 395.273 2.07302 394.86 2.78865L386.43 17.3702C386.156 17.8442 385.761 18.2378 385.286 18.5113C384.811 18.7849 384.273 18.9288 383.724 18.9287Z" fill="#C1C1C1" fill-opacity="0.55"/>
<path d="M270.816 11.6379C270.268 11.6375 269.731 11.4933 269.257 11.2197C268.783 10.9462 268.389 10.5529 268.115 10.0794C267.842 9.60596 267.697 9.06889 267.697 8.52215C267.697 7.9754 267.841 7.43822 268.114 6.96451L276.544 -7.61704C276.958 -8.33258 277.64 -8.8545 278.439 -9.06803C279.239 -9.28157 280.091 -9.16923 280.807 -8.75572C281.162 -8.55104 281.474 -8.2785 281.723 -7.95367C281.973 -7.62884 282.156 -7.25808 282.262 -6.86258C282.368 -6.46707 282.395 -6.05457 282.341 -5.64863C282.288 -5.24269 282.155 -4.85128 281.949 -4.49674L273.52 10.0848C273.245 10.5576 272.85 10.9499 272.376 11.2225C271.901 11.4951 271.363 11.6383 270.816 11.6379Z" fill="#C1C1C1" fill-opacity="0.55"/>
<path d="M358.861 61.9394C358.313 61.9392 357.776 61.7952 357.302 61.5218C356.828 61.2484 356.434 60.8552 356.16 60.3817C355.886 59.9083 355.742 59.3713 355.742 58.8246C355.742 58.2779 355.886 57.7407 356.159 57.2671L373.442 27.3701C373.856 26.6544 374.537 26.1322 375.337 25.9184C376.136 25.7046 376.987 25.8166 377.704 26.2298C378.421 26.643 378.943 27.3235 379.158 28.1217C379.372 28.9199 379.26 29.7704 378.846 30.486L361.565 60.3831C361.291 60.8572 360.897 61.2508 360.422 61.524C359.947 61.7973 359.409 61.9406 358.861 61.9394Z" fill="#C1C1C1" fill-opacity="0.55"/>
<path d="M346.065 47.0935C344.066 47.0935 342.113 46.5016 340.451 45.3927C338.789 44.2839 337.494 42.7078 336.729 40.8638C335.965 39.0198 335.764 36.9907 336.154 35.0331C336.544 33.0755 337.507 31.2774 338.92 29.866C340.333 28.4547 342.134 27.4936 344.094 27.1042C346.054 26.7148 348.086 26.9147 349.932 27.6785C351.778 28.4423 353.357 29.7357 354.467 31.3953C355.577 33.0548 356.17 35.006 356.17 37.0019C356.167 39.6776 355.102 42.2429 353.207 44.1349C351.313 46.0269 348.744 47.0909 346.065 47.0935ZM346.065 33.1455C345.301 33.1461 344.554 33.373 343.919 33.7974C343.284 34.2218 342.79 34.8248 342.498 35.5299C342.206 36.2351 342.13 37.0109 342.279 37.7592C342.429 38.5075 342.797 39.1947 343.338 39.734C343.878 40.2732 344.567 40.6403 345.316 40.7888C346.066 40.9373 346.842 40.8606 347.548 40.5683C348.254 40.276 348.857 39.7812 349.281 39.1466C349.706 38.512 349.932 37.766 349.932 37.003C349.932 36.496 349.832 35.9941 349.637 35.5258C349.443 35.0575 349.158 34.632 348.799 34.2737C348.44 33.9154 348.013 33.6313 347.544 33.4375C347.075 33.2437 346.573 33.1452 346.065 33.1455Z" fill="#C1C1C1" fill-opacity="0.55"/>
<path d="M275.031 61.0404C273.033 61.0399 271.08 60.4479 269.419 59.3391C267.758 58.2303 266.463 56.6545 265.699 54.811C264.934 52.9675 264.735 50.939 265.124 48.9821C265.514 47.0251 266.476 45.2275 267.889 43.8166C269.302 42.4057 271.102 41.4448 273.061 41.0555C275.021 40.6661 277.052 40.8657 278.898 41.6291C280.744 42.3925 282.322 43.6853 283.432 45.3442C284.542 47.0031 285.135 48.9535 285.136 50.9488C285.133 53.6245 284.068 56.19 282.173 58.0821C280.279 59.9741 277.71 61.0381 275.031 61.0404ZM275.031 47.0935C274.267 47.0937 273.52 47.3202 272.885 47.7442C272.25 48.1683 271.755 48.771 271.463 49.476C271.171 50.181 271.094 50.9567 271.244 51.7049C271.393 52.4532 271.761 53.1404 272.302 53.6797C272.842 54.219 273.531 54.5861 274.28 54.7346C275.029 54.8831 275.806 54.8064 276.512 54.5141C277.217 54.2217 277.82 53.727 278.244 53.0923C278.669 52.4577 278.895 51.7118 278.894 50.9488C278.893 49.9261 278.485 48.9457 277.761 48.2227C277.037 47.4998 276.055 47.0943 275.031 47.0935Z" fill="#C1C1C1" fill-opacity="0.55"/>
</g>
<g opacity="0.4">
<path d="M155.362 2.4036C154.814 2.40306 154.276 2.25584 153.802 1.9767C153.328 1.69756 152.934 1.29634 152.661 0.813305C152.387 0.330265 152.243 -0.217602 152.243 -0.775307C152.243 -1.33301 152.387 -1.88094 152.66 -2.36409L185.957 -61.0908C186.162 -61.4521 186.435 -61.7688 186.76 -62.0227C187.085 -62.2767 187.456 -62.4629 187.852 -62.5709C188.247 -62.6788 188.66 -62.7063 189.066 -62.6517C189.472 -62.5972 189.864 -62.4617 190.219 -62.253C190.935 -61.8313 191.457 -61.1375 191.671 -60.3239C191.886 -59.5103 191.774 -58.6434 191.361 -57.9135L158.065 0.813271C157.791 1.2968 157.397 1.69838 156.923 1.97756C156.448 2.25675 155.91 2.4037 155.362 2.4036Z" fill="#C1C1C1" fill-opacity="0.55"/>
<path d="M178.515 18.2343C177.968 18.2336 177.431 18.0863 176.957 17.8073C176.483 17.5282 176.089 17.1273 175.816 16.6446C175.542 16.1619 175.398 15.6144 175.397 15.057C175.397 14.4996 175.541 13.9519 175.814 13.4688L185.955 -4.42214C186.374 -5.1417 187.054 -5.66407 187.849 -5.87593C188.644 -6.08779 189.488 -5.97204 190.199 -5.5538C190.911 -5.13556 191.431 -4.44856 191.648 -3.64186C191.865 -2.83516 191.761 -1.97384 191.359 -1.24478L181.219 16.644C180.945 17.1275 180.551 17.529 180.077 17.8081C179.602 18.0873 179.064 18.2343 178.515 18.2343Z" fill="#C1C1C1" fill-opacity="0.55"/>
<path d="M155.362 59.0701C154.814 59.0705 154.276 58.9241 153.802 58.6454C153.327 58.3668 152.933 57.9658 152.659 57.4828C152.385 56.9998 152.241 56.4519 152.241 55.8941C152.242 55.3364 152.386 54.7885 152.66 54.3057L167.858 27.5034C168.281 26.7931 168.961 26.2797 169.751 26.0733C170.541 25.8668 171.379 25.9837 172.086 26.3989C172.792 26.814 173.311 27.4944 173.531 28.2944C173.751 29.0943 173.654 29.9501 173.262 30.6785L158.065 57.4831C157.791 57.9662 157.397 58.3673 156.922 58.6459C156.448 58.9245 155.91 59.0709 155.362 59.0701Z" fill="#C1C1C1" fill-opacity="0.55"/>
<path d="M223.757 31.7648C223.21 31.7646 222.672 31.6177 222.198 31.3389C221.724 31.0601 221.33 30.6592 221.056 30.1764C220.783 29.6937 220.638 29.146 220.638 28.5886C220.638 28.0311 220.782 27.4834 221.055 27.0004L238.338 -3.48555C238.752 -4.21528 239.434 -4.74774 240.233 -4.9658C241.032 -5.18386 241.884 -5.06965 242.6 -4.64831C243.317 -4.22696 243.84 -3.53299 244.054 -2.71906C244.268 -1.90513 244.156 -1.03792 243.742 -0.308189L226.461 30.1778C226.187 30.6612 225.793 31.0625 225.318 31.3412C224.844 31.6199 224.305 31.766 223.757 31.7648Z" fill="#C1C1C1" fill-opacity="0.55"/>
<path d="M210.961 16.6264C208.963 16.6264 207.009 16.0229 205.347 14.8922C203.685 13.7614 202.39 12.1543 201.626 10.274C200.861 8.39365 200.661 6.3246 201.051 4.32846C201.44 2.33232 202.403 0.498747 203.816 -0.94039C205.229 -2.37953 207.03 -3.35959 208.99 -3.75664C210.95 -4.1537 212.982 -3.94992 214.828 -3.17106C216.675 -2.39221 218.253 -1.07327 219.363 0.618979C220.473 2.31122 221.066 4.30077 221.066 6.33601C221.063 9.06439 219.998 11.6803 218.104 13.6095C216.209 15.5388 213.64 16.6238 210.961 16.6264ZM210.961 2.40365C210.197 2.40431 209.45 2.63565 208.815 3.06843C208.18 3.50121 207.686 4.116 207.394 4.83506C207.102 5.55413 207.026 6.34519 207.175 7.10824C207.325 7.87128 207.693 8.57204 208.234 9.12192C208.775 9.67181 209.463 10.0461 210.213 10.1975C210.962 10.349 211.739 10.2707 212.444 9.97264C213.15 9.67458 213.753 9.1701 214.178 8.52299C214.602 7.87589 214.828 7.1152 214.828 6.33711C214.828 5.82018 214.728 5.30835 214.533 4.83083C214.339 4.35332 214.054 3.91949 213.695 3.55411C213.336 3.18874 212.91 2.89899 212.441 2.7014C211.971 2.50381 211.469 2.40336 210.961 2.40365Z" fill="#C1C1C1" fill-opacity="0.55"/>
<path d="M139.927 30.848C137.929 30.8476 135.976 30.2439 134.315 29.1132C132.654 27.9826 131.359 26.3758 130.595 24.4959C129.831 22.6161 129.631 20.5477 130.021 18.5522C130.41 16.5567 131.373 14.7237 132.785 13.285C134.198 11.8463 135.998 10.8665 137.958 10.4694C139.917 10.0724 141.948 10.276 143.794 11.0544C145.64 11.8328 147.218 13.1511 148.328 14.8427C149.439 16.5342 150.031 18.523 150.032 20.5576C150.029 23.2861 148.964 25.9021 147.07 27.8315C145.175 29.7608 142.606 30.8457 139.927 30.848ZM139.927 16.6264C139.163 16.6266 138.416 16.8575 137.781 17.29C137.146 17.7224 136.651 18.337 136.359 19.0558C136.067 19.7747 135.991 20.5657 136.14 21.3287C136.289 22.0917 136.657 22.7925 137.198 23.3424C137.738 23.8923 138.427 24.2666 139.176 24.4181C139.925 24.5695 140.702 24.4912 141.408 24.1931C142.114 23.8951 142.717 23.3906 143.141 22.7434C143.565 22.0963 143.791 21.3357 143.79 20.5576C143.789 19.5148 143.381 18.5151 142.657 17.7779C141.933 17.0407 140.951 16.6273 139.927 16.6264Z" fill="#C1C1C1" fill-opacity="0.55"/>
</g>
<g opacity="0.4">
<path d="M23.5294 27.2687C22.982 27.2684 22.4443 27.1216 21.9702 26.8428C21.4962 26.564 21.1025 26.163 20.8287 25.6803C20.555 25.1975 20.4107 24.6499 20.4105 24.0924C20.4103 23.5349 20.5542 22.9872 20.8276 22.5043L38.1107 -7.98169C38.5244 -8.71142 39.2059 -9.24388 40.0051 -9.46194C40.8044 -9.68 41.6559 -9.56579 42.3725 -9.14445C43.0891 -8.7231 43.6119 -8.02913 43.8261 -7.2152C44.0402 -6.40127 43.9281 -5.53406 43.5143 -4.80433L26.2334 25.6816C25.9597 26.1651 25.5655 26.5664 25.0908 26.8451C24.616 27.1237 24.0774 27.2698 23.5294 27.2687Z" fill="#C1C1C1" fill-opacity="0.55"/>
<path d="M10.7335 12.1303C8.73497 12.1303 6.7813 11.5267 5.11957 10.396C3.45784 9.2653 2.1627 7.65816 1.39789 5.77784C0.633081 3.89751 0.432999 1.82846 0.822896 -0.167683C1.21279 -2.16382 2.17519 -3.99739 3.58838 -5.43653C5.00157 -6.87567 6.80208 -7.85573 8.76222 -8.25278C10.7224 -8.64984 12.7541 -8.44606 14.6005 -7.6672C16.4469 -6.88835 18.0251 -5.56941 19.1354 -3.87716C20.2458 -2.18492 20.8384 -0.195372 20.8384 1.83988C20.8358 4.56825 19.7703 7.18413 17.8759 9.11338C15.9814 11.0426 13.4127 12.1276 10.7335 12.1303ZM10.7335 -2.09249C9.96946 -2.09183 9.22278 -1.86049 8.58782 -1.42771C7.95285 -0.994928 7.45816 -0.380142 7.16626 0.338925C6.87436 1.05799 6.79832 1.84905 6.94786 2.6121C7.09739 3.37514 7.46578 4.0759 8.00636 4.62578C8.54693 5.17567 9.23546 5.54998 9.98491 5.70141C10.7344 5.85283 11.511 5.77457 12.2168 5.4765C12.9226 5.17844 13.5257 4.67396 13.95 4.02685C14.3743 3.37975 14.6006 2.61906 14.6004 1.84097C14.6002 1.32404 14.5001 0.812206 14.3057 0.334694C14.1113 -0.142819 13.8264 -0.576653 13.4673 -0.942025C13.1083 -1.3074 12.682 -1.59715 12.2129 -1.79474C11.7439 -1.99232 11.2411 -2.09277 10.7335 -2.09249Z" fill="#C1C1C1" fill-opacity="0.55"/>
</g>
<g opacity="0.4">
<path d="M41.5192 191.326C40.9715 191.326 40.4337 191.181 39.9596 190.907C39.4855 190.634 39.0918 190.24 38.818 189.766C38.5443 189.293 38.4001 188.755 38.4 188.209C38.3999 187.662 38.5438 187.124 38.8174 186.65L72.1147 129.058C72.3195 128.704 72.5923 128.393 72.9173 128.144C73.2423 127.895 73.6132 127.713 74.009 127.607C74.4047 127.501 74.8174 127.474 75.2235 127.527C75.6297 127.581 76.0213 127.714 76.376 127.918C77.0921 128.332 77.6145 129.012 77.8287 129.81C78.0429 130.608 77.9313 131.458 77.5184 132.174L44.2221 189.766C43.9485 190.241 43.5546 190.634 43.0801 190.908C42.6056 191.182 42.0672 191.326 41.5192 191.326Z" fill="#C1C1C1" fill-opacity="0.55"/>
<path d="M83.5293 174.407C82.9827 174.407 82.4457 174.263 81.9731 173.989C81.2569 173.576 80.7342 172.896 80.52 172.098C80.3058 171.3 80.4176 170.45 80.8307 169.734L114.127 112.143C114.331 111.788 114.603 111.477 114.928 111.228C115.253 110.978 115.624 110.795 116.019 110.689C116.415 110.583 116.828 110.556 117.234 110.61C117.64 110.663 118.032 110.796 118.386 111.001C118.741 111.206 119.052 111.478 119.302 111.802C119.551 112.127 119.734 112.497 119.84 112.892C119.946 113.287 119.974 113.699 119.92 114.105C119.867 114.51 119.734 114.902 119.53 115.256L86.2366 172.849C85.9619 173.323 85.5671 173.717 85.0918 173.99C84.6166 174.264 84.0777 174.407 83.5293 174.407Z" fill="#C1C1C1" fill-opacity="0.55"/>
</g>
<path d="M46.3683 96.7487L41.6883 113.501H37.7283L34.5843 101.573L31.2963 113.501L27.3603 113.525L22.8483 96.7487H26.4483L29.4003 109.757L32.8083 96.7487H36.5523L39.7683 109.685L42.7443 96.7487H46.3683ZM60.9223 106.565C60.9223 107.045 60.8903 107.477 60.8263 107.861H51.1063C51.1863 108.821 51.5223 109.573 52.1143 110.117C52.7063 110.661 53.4343 110.933 54.2983 110.933C55.5463 110.933 56.4343 110.397 56.9623 109.325H60.5863C60.2023 110.605 59.4663 111.661 58.3783 112.493C57.2903 113.309 55.9543 113.717 54.3703 113.717C53.0903 113.717 51.9383 113.437 50.9143 112.877C49.9063 112.301 49.1143 111.493 48.5383 110.453C47.9783 109.413 47.6982 108.213 47.6982 106.853C47.6982 105.477 47.9783 104.269 48.5383 103.229C49.0983 102.189 49.8823 101.389 50.8903 100.829C51.8983 100.269 53.0583 99.9887 54.3703 99.9887C55.6343 99.9887 56.7623 100.261 57.7543 100.805C58.7623 101.349 59.5383 102.125 60.0823 103.133C60.6423 104.125 60.9223 105.269 60.9223 106.565ZM57.4423 105.605C57.4263 104.741 57.1143 104.053 56.5063 103.541C55.8983 103.013 55.1543 102.749 54.2743 102.749C53.4423 102.749 52.7383 103.005 52.1623 103.517C51.6023 104.013 51.2583 104.709 51.1303 105.605H57.4423ZM66.7348 95.7407V113.501H63.3748V95.7407H66.7348ZM69.1904 106.853C69.1904 105.477 69.4704 104.277 70.0304 103.253C70.5904 102.213 71.3664 101.413 72.3584 100.853C73.3504 100.277 74.4864 99.9887 75.7664 99.9887C77.4144 99.9887 78.7744 100.405 79.8464 101.237C80.9344 102.053 81.6624 103.205 82.0304 104.693H78.4064C78.2144 104.117 77.8864 103.669 77.4224 103.349C76.9744 103.013 76.4144 102.845 75.7424 102.845C74.7824 102.845 74.0224 103.197 73.4624 103.901C72.9024 104.589 72.6224 105.573 72.6224 106.853C72.6224 108.117 72.9024 109.101 73.4624 109.805C74.0224 110.493 74.7824 110.837 75.7424 110.837C77.1024 110.837 77.9904 110.229 78.4064 109.013H82.0304C81.6624 110.453 80.9344 111.597 79.8464 112.445C78.7584 113.293 77.3984 113.717 75.7664 113.717C74.4864 113.717 73.3504 113.437 72.3584 112.877C71.3664 112.301 70.5904 111.501 70.0304 110.477C69.4704 109.437 69.1904 108.229 69.1904 106.853ZM90.3959 113.717C89.1159 113.717 87.9639 113.437 86.9399 112.877C85.9159 112.301 85.1079 111.493 84.5159 110.453C83.9399 109.413 83.6519 108.213 83.6519 106.853C83.6519 105.493 83.9479 104.293 84.5399 103.253C85.1479 102.213 85.9719 101.413 87.0119 100.853C88.0519 100.277 89.2119 99.9887 90.4919 99.9887C91.7719 99.9887 92.9319 100.277 93.9719 100.853C95.0119 101.413 95.8279 102.213 96.4199 103.253C97.0279 104.293 97.3319 105.493 97.3319 106.853C97.3319 108.213 97.0199 109.413 96.3959 110.453C95.7879 111.493 94.9559 112.301 93.8999 112.877C92.8599 113.437 91.6919 113.717 90.3959 113.717ZM90.3959 110.789C91.0039 110.789 91.5719 110.645 92.0999 110.357C92.6439 110.053 93.0759 109.605 93.3959 109.013C93.7159 108.421 93.8759 107.701 93.8759 106.853C93.8759 105.589 93.5399 104.621 92.8679 103.949C92.2119 103.261 91.4039 102.917 90.4439 102.917C89.4839 102.917 88.6759 103.261 88.0199 103.949C87.3799 104.621 87.0599 105.589 87.0599 106.853C87.0599 108.117 87.3719 109.093 87.9959 109.781C88.6359 110.453 89.4359 110.789 90.3959 110.789ZM116.309 100.013C117.941 100.013 119.253 100.517 120.245 101.525C121.253 102.517 121.757 103.909 121.757 105.701V113.501H118.397V106.157C118.397 105.117 118.133 104.325 117.605 103.781C117.077 103.221 116.357 102.941 115.445 102.941C114.533 102.941 113.805 103.221 113.261 103.781C112.733 104.325 112.469 105.117 112.469 106.157V113.501H109.109V106.157C109.109 105.117 108.845 104.325 108.317 103.781C107.789 103.221 107.069 102.941 106.157 102.941C105.229 102.941 104.493 103.221 103.949 103.781C103.421 104.325 103.157 105.117 103.157 106.157V113.501H99.7966V100.205H103.157V101.813C103.589 101.253 104.141 100.813 104.813 100.493C105.501 100.173 106.253 100.013 107.069 100.013C108.109 100.013 109.037 100.237 109.853 100.685C110.669 101.117 111.301 101.741 111.749 102.557C112.181 101.789 112.805 101.173 113.621 100.709C114.453 100.245 115.349 100.013 116.309 100.013ZM137.305 106.565C137.305 107.045 137.273 107.477 137.209 107.861H127.489C127.569 108.821 127.905 109.573 128.497 110.117C129.089 110.661 129.817 110.933 130.681 110.933C131.929 110.933 132.817 110.397 133.345 109.325H136.969C136.585 110.605 135.849 111.661 134.761 112.493C133.673 113.309 132.337 113.717 130.753 113.717C129.473 113.717 128.321 113.437 127.297 112.877C126.289 112.301 125.497 111.493 124.921 110.453C124.361 109.413 124.081 108.213 124.081 106.853C124.081 105.477 124.361 104.269 124.921 103.229C125.481 102.189 126.265 101.389 127.273 100.829C128.281 100.269 129.441 99.9887 130.753 99.9887C132.017 99.9887 133.145 100.261 134.137 100.805C135.145 101.349 135.921 102.125 136.465 103.133C137.025 104.125 137.305 105.269 137.305 106.565ZM133.825 105.605C133.809 104.741 133.497 104.053 132.889 103.541C132.281 103.013 131.537 102.749 130.657 102.749C129.825 102.749 129.121 103.005 128.545 103.517C127.985 104.013 127.641 104.709 127.513 105.605H133.825Z" fill="white"/>
</g>
<defs>
<linearGradient id="paint0_linear_120_676" x1="0" y1="69.5" x2="390" y2="69.5" gradientUnits="userSpaceOnUse">
<stop offset="0.340059" stop-color="#004C97"/>
<stop offset="1" stop-color="#00A3E0"/>
</linearGradient>
<clipPath id="clip0_120_676">
<rect width="390" height="139" fill="white"/>
</clipPath>
</defs>
</svg>
