<svg width="100" height="100" viewBox="0 0 100 100" fill="none" xmlns="http://www.w3.org/2000/svg">
<rect width="100" height="100" rx="8" fill="url(#paint0_linear_457_512)"/>
<path d="M49.9998 24C44.6459 24 38.8681 26.0053 36.0786 29.5715L38.2349 32.6667H61.7645L63.9208 29.5715C61.1314 26.0054 55.354 24 49.9998 24ZM40.7696 35.143C41.161 35.86 41.7851 36.5666 42.888 37.1935C44.6309 38.1836 47.1729 38.857 49.9998 38.857C52.8262 38.857 55.3684 38.1836 57.1112 37.1935C58.214 36.5666 58.8381 35.8601 59.2295 35.143H40.7696ZM39.2566 37.3676C40.0713 48.0262 44.56 56.1903 49.9998 56.1903C55.4392 56.1903 59.9279 48.0266 60.743 37.3676C60.0893 38.1418 59.2465 38.8133 58.284 39.3599C56.084 40.6098 53.19 41.3331 49.9998 41.3331C46.8096 41.3331 43.9152 40.6098 41.7152 39.3599C40.7527 38.8133 39.9099 38.1418 39.2566 37.3676ZM41.7532 53.5596L33.0528 57.4286C30.0536 58.962 27 63.2846 27 66.714V75.9994H42.5094L46.4626 57.834C44.6376 56.9538 43.0564 55.4367 41.7532 53.5596ZM58.2465 53.5596C56.9432 55.4367 55.3618 56.9544 53.5373 57.8347L57.3765 76H73V66.7146C73 63.2852 70.0225 58.7966 66.9477 57.4292L58.2465 53.5596ZM46.4626 57.834L42.5094 75.9994L57.3765 76L53.5373 57.8347C53.1417 57.8961 50.4128 58.6664 50.0003 58.6664C49.5812 58.6664 46.8642 57.8974 46.4626 57.834Z" fill="white"/>
<path d="M49.2532 76L34.3182 53.8947L37.9026 52L55.2273 76H49.2532Z" fill="url(#paint1_linear_457_512)"/>
<defs>
<linearGradient id="paint0_linear_457_512" x1="50" y1="0" x2="50" y2="100" gradientUnits="userSpaceOnUse">
<stop stop-color="#0A6CDF"/>
<stop offset="0.47" stop-color="#095DB8"/>
<stop offset="1" stop-color="#004C97"/>
</linearGradient>
<linearGradient id="paint1_linear_457_512" x1="44.7727" y1="52" x2="44.7727" y2="76" gradientUnits="userSpaceOnUse">
<stop offset="0.365" stop-color="#085AB4"/>
<stop offset="1" stop-color="#0352A4"/>
</linearGradient>
</defs>
</svg>
