<svg width="72" height="72" viewBox="0 0 72 72" fill="none" xmlns="http://www.w3.org/2000/svg">
<rect width="10.2857" height="10.2857" rx="5.14286" fill="#004C97" fill-opacity="0.06"/>
<rect y="15.4286" width="10.2857" height="10.2857" rx="5.14286" fill="#004C97" fill-opacity="0.06"/>
<rect y="30.8571" width="10.2857" height="10.2857" rx="5.14286" fill="#004C97" fill-opacity="0.06"/>
<rect y="46.2857" width="10.2857" height="10.2857" rx="5.14286" fill="#004C97" fill-opacity="0.06"/>
<rect y="61.7143" width="10.2857" height="10.2857" rx="5.14286" fill="#004C97" fill-opacity="0.06"/>
<rect x="15.4286" y="46.2857" width="10.2857" height="10.2857" rx="5.14286" fill="#004C97" fill-opacity="0.06"/>
<rect x="30.8571" y="30.8571" width="10.2857" height="10.2857" rx="5.14286" fill="#004C97" fill-opacity="0.06"/>
<rect x="46.2857" y="15.4286" width="10.2857" height="10.2857" rx="5.14286" fill="#004C97" fill-opacity="0.06"/>
<rect x="61.7143" width="10.2857" height="10.2857" rx="5.14286" fill="#004C97" fill-opacity="0.06"/>
<rect x="15.4286" y="30.8571" width="10.2857" height="10.2857" rx="5.14286" fill="#004C97" fill-opacity="0.06"/>
<rect x="15.4286" y="15.4286" width="10.2857" height="10.2857" rx="5.14286" fill="#004C97" fill-opacity="0.06"/>
<rect x="15.4286" width="10.2857" height="10.2857" rx="5.14286" fill="#004C97" fill-opacity="0.06"/>
<rect x="30.8571" width="10.2857" height="10.2857" rx="5.14286" fill="#004C97" fill-opacity="0.06"/>
<rect x="30.8571" y="15.4286" width="10.2857" height="10.2857" rx="5.14286" fill="#004C97" fill-opacity="0.06"/>
<rect x="46.2857" width="10.2857" height="10.2857" rx="5.14286" fill="#004C97" fill-opacity="0.06"/>
</svg>
