<svg width="86" height="41" viewBox="0 0 86 41" fill="none" xmlns="http://www.w3.org/2000/svg">
<path d="M0.941265 10.4885C0.77596 10.4882 0.613643 10.4413 0.4706 10.3527C0.327556 10.2641 0.208818 10.1367 0.126298 9.98349C0.0437788 9.83025 0.000380782 9.65648 0.000457866 9.47963C0.00053495 9.30278 0.0440849 9.12906 0.126738 8.9759L4.61776 0.655183C4.67895 0.539207 4.76102 0.437355 4.85922 0.355515C4.95743 0.273675 5.06982 0.213469 5.1899 0.178378C5.30998 0.143286 5.43537 0.134004 5.55883 0.151069C5.68228 0.168134 5.80135 0.211207 5.90915 0.277799C6.01696 0.34439 6.11135 0.433179 6.18689 0.539035C6.26242 0.64489 6.3176 0.765713 6.34923 0.894519C6.38086 1.02333 6.38831 1.15756 6.37116 1.28947C6.354 1.42137 6.31258 1.54833 6.24929 1.66301L1.75827 9.98488C1.67522 10.138 1.55605 10.2651 1.41267 10.3535C1.26929 10.4419 1.10674 10.4884 0.941265 10.4885Z" fill="#00A3E0"/>
<path d="M0.941265 18.5192C0.77596 18.5188 0.613643 18.472 0.4706 18.3834C0.327557 18.2947 0.208818 18.1674 0.126298 18.0142C0.0437788 17.8609 0.000380782 17.6872 0.000457866 17.5103C0.00053495 17.3334 0.0440849 17.1597 0.126738 17.0066L4.61776 8.68528C4.67898 8.5693 4.76108 8.46746 4.85931 8.38563C4.95754 8.3038 5.06995 8.24361 5.19005 8.20854C5.31015 8.17347 5.43556 8.16422 5.55903 8.18131C5.68249 8.1984 5.80157 8.2415 5.90937 8.30813C6.01717 8.37475 6.11156 8.46357 6.18709 8.56945C6.26261 8.67533 6.31777 8.79618 6.34938 8.92501C6.38099 9.05384 6.38842 9.18809 6.37124 9.32001C6.35406 9.45192 6.31261 9.57889 6.24929 9.69357L1.75827 18.0149C1.67535 18.1682 1.55622 18.2954 1.41283 18.384C1.26944 18.4725 1.10681 18.5191 0.941265 18.5192Z" fill="#004C97"/>
<path d="M8.3607 18.5192C8.19531 18.519 8.03286 18.4723 7.88966 18.3838C7.74647 18.2952 7.62758 18.1679 7.54493 18.0146C7.46229 17.8614 7.41879 17.6875 7.41882 17.5106C7.41885 17.3336 7.46241 17.1598 7.5451 17.0065L12.0355 8.68526C12.0969 8.56955 12.179 8.46798 12.2772 8.3864C12.3755 8.30483 12.4878 8.24486 12.6078 8.20995C12.7278 8.17504 12.8531 8.16588 12.9764 8.18301C13.0997 8.20014 13.2186 8.2432 13.3263 8.30973C13.434 8.37626 13.5283 8.46493 13.6038 8.57064C13.6793 8.67634 13.7345 8.79699 13.7663 8.92563C13.798 9.05427 13.8056 9.18835 13.7886 9.32014C13.7717 9.45194 13.7305 9.57885 13.6676 9.69355L9.1777 18.0148C9.09496 18.1683 8.97588 18.2957 8.83244 18.3843C8.68901 18.4728 8.5263 18.5193 8.3607 18.5192Z" fill="#43B02A"/>
<path d="M8.99785 11.2039C8.99783 11.4032 8.94256 11.5981 8.83903 11.7638C8.73551 11.9295 8.58837 12.0587 8.41623 12.135C8.24409 12.2113 8.05467 12.2312 7.87193 12.1923C7.68919 12.1534 7.52133 12.0575 7.38957 11.9165C7.25781 11.7756 7.16808 11.596 7.13171 11.4005C7.09534 11.205 7.11397 11.0023 7.18525 10.8182C7.25653 10.634 7.37725 10.4766 7.53215 10.3658C7.68705 10.255 7.86918 10.1958 8.0555 10.1958C8.30537 10.1959 8.54498 10.3022 8.72168 10.4912C8.89837 10.6802 8.99771 10.9365 8.99785 11.2039Z" fill="#43B02A"/>
<path d="M17.056 21.0685C16.1805 20.7893 15.4252 20.5491 15.4252 19.8742C15.4252 19.2313 16.1947 19.1612 16.5248 19.1612C17.1822 19.1612 18.105 19.4832 18.8801 19.9796L18.9649 20.0332L19.6554 18.446L19.5909 18.4011C18.7109 17.8056 17.6922 17.4866 16.651 17.4803C14.7783 17.4803 13.5678 18.4773 13.5678 20.0206C13.5678 21.8166 15.0298 22.2645 16.2062 22.6252C17.0951 22.8974 17.8653 23.1329 17.8653 23.8357C17.8653 24.3745 17.3972 24.6832 16.5822 24.6832C15.7266 24.6832 14.6642 24.1981 13.8741 23.4472L13.7881 23.3654L13.0678 24.9226L13.117 24.9707C14.0724 25.8601 15.2936 26.3542 16.5599 26.3639C18.4754 26.3639 19.7122 25.3335 19.7122 23.739C19.7187 21.9161 18.2426 21.4455 17.0569 21.0684" fill="#004C97"/>
<path d="M22.5229 24.6339V17.5539H20.8141V26.3027H25.9741V24.6339H22.5229Z" fill="#004C97"/>
<path d="M31.3509 17.5539H25.3631V19.1985H27.8551V26.3027H29.5751V19.1985H32.1214L31.3509 17.5539Z" fill="#004C97"/>
<path d="M43.5771 17.5052C41.0952 17.5052 39.2247 19.4072 39.2247 21.9283C39.2247 24.4228 41.1368 26.3767 43.5771 26.3767C46.0173 26.3767 47.9284 24.4228 47.9284 21.9283C47.9284 19.4072 46.0586 17.5052 43.5771 17.5052ZM43.5993 24.7203C43.2554 24.725 42.9139 24.6566 42.5949 24.5191C42.2758 24.3815 41.9855 24.1776 41.7407 23.919C41.4959 23.6605 41.3016 23.3525 41.1689 23.013C41.0362 22.6734 40.9679 22.3091 40.9679 21.9411C40.9679 21.573 41.0362 21.2087 41.1689 20.8692C41.3016 20.5296 41.4959 20.2216 41.7407 19.9631C41.9855 19.7046 42.2758 19.5006 42.5949 19.363C42.9139 19.2255 43.2554 19.1571 43.5993 19.1618C44.2883 19.1618 44.949 19.4547 45.4362 19.9759C45.9234 20.4971 46.197 21.204 46.197 21.9411C46.197 22.6781 45.9234 23.385 45.4362 23.9062C44.949 24.4275 44.2883 24.7203 43.5993 24.7203Z" fill="#43B02A"/>
<path d="M54.254 21.6711C54.6053 21.5234 54.9054 21.2632 55.1134 20.9261C55.3213 20.589 55.4268 20.1914 55.4156 19.7877C55.4156 18.4096 54.3264 17.5538 52.5719 17.5538H48.9294V26.3027H52.6754C54.5567 26.3027 55.7241 25.3625 55.7241 23.848C55.7241 22.7841 55.1689 21.9749 54.254 21.6711ZM52.4929 21.0511H50.638V19.1616H52.5293C53.2452 19.1616 53.6729 19.5055 53.6729 20.0824C53.6729 20.6977 53.2429 21.0511 52.4929 21.0511ZM50.638 22.622H52.5315C53.4256 22.622 53.9591 23.0026 53.9591 23.6403C53.9639 23.7911 53.9329 23.9407 53.8689 24.0752C53.805 24.2097 53.7103 24.3247 53.5936 24.4094C53.3457 24.5968 52.9794 24.696 52.5312 24.696H50.6377L50.638 22.622Z" fill="#43B02A"/>
<path d="M58.5712 17.5538H56.8627V26.3028H58.5712V17.5538Z" fill="#43B02A"/>
<path d="M59.2962 17.5539V19.1985H61.7896V26.3027H63.5086V19.1985H66.0008V17.5539H59.2962Z" fill="#43B02A"/>
<path d="M68.4474 24.6832V22.7201H72.3325V21.1002H68.4474V19.1739H72.7789V17.5538H66.7385V26.3026H72.9164V24.6832H68.4474Z" fill="#43B02A"/>
<path d="M75.6499 24.6339V17.5539H73.9418V26.3027H79.1018V24.6339H75.6499Z" fill="#43B02A"/>
<path d="M36.3193 17.5539L33.8717 22.9255L32.6547 20.3298H30.9896L33.3137 25.4226H34.4191L36.6419 20.505L36.6527 26.3028H38.2238V17.5539H36.3193Z" fill="#43B02A"/>
<path d="M30.0681 29.0651V29.4882H29.2412V31.8561H28.8014V29.4882H27.9779V29.0651H30.0681Z" fill="#004C97"/>
<path d="M32.6979 30.5903V31.8554H32.2698V30.7175C32.2757 30.6487 32.2675 30.5794 32.2457 30.5144C32.2239 30.4494 32.1891 30.3903 32.1436 30.3413C32.0982 30.2922 32.0433 30.2544 31.9828 30.2305C31.9222 30.2066 31.8575 30.1971 31.7932 30.2028C31.4385 30.2072 31.2269 30.4896 31.2269 30.8645V31.8554H30.7979V29.0572H31.2266V30.2028C31.3675 29.9038 31.6201 29.7729 31.96 29.7729C32.4222 29.7729 32.6975 30.0834 32.6975 30.5895" fill="#004C97"/>
<path d="M35.5753 30.9704H34.0778C34.1034 31.1231 34.1796 31.2609 34.2926 31.3583C34.4055 31.4557 34.5475 31.5062 34.6925 31.5005C34.7965 31.5019 34.8996 31.4806 34.9957 31.4381C35.0918 31.3955 35.1788 31.3326 35.2515 31.253L35.4793 31.5125C35.3739 31.6306 35.2464 31.7236 35.1051 31.7854C34.9638 31.8472 34.8119 31.8763 34.6594 31.8709C34.0482 31.8709 33.6453 31.4369 33.6453 30.7991C33.6386 30.656 33.6599 30.5129 33.7078 30.3791C33.7556 30.2453 33.8291 30.1236 33.9234 30.0219C34.0177 29.9201 34.1308 29.8405 34.2555 29.7882C34.3802 29.7359 34.5137 29.712 34.6476 29.718C35.3447 29.718 35.6266 30.2047 35.5757 30.9699M35.2028 30.6356C35.2038 30.5597 35.1899 30.4844 35.1621 30.4145C35.1343 30.3447 35.0932 30.2819 35.0414 30.23C34.9895 30.1782 34.9282 30.1385 34.8612 30.1135C34.7942 30.0886 34.723 30.0788 34.6523 30.085C34.5077 30.0789 34.3664 30.1327 34.2579 30.2353C34.1494 30.3378 34.0822 30.4812 34.0701 30.6356H35.2028Z" fill="#004C97"/>
<path d="M39.446 29.4719C39.3243 29.4699 39.2033 29.4939 39.0903 29.5423C38.9772 29.5908 38.8743 29.6629 38.7875 29.7543C38.7007 29.8458 38.6318 29.9547 38.5848 30.0749C38.5377 30.1951 38.5135 30.3241 38.5135 30.4544C38.5135 30.5848 38.5377 30.7138 38.5848 30.834C38.6318 30.9542 38.7007 31.0631 38.7875 31.1546C38.8743 31.246 38.9772 31.3181 39.0903 31.3665C39.2033 31.415 39.3243 31.439 39.446 31.437C39.7188 31.4287 39.9785 31.3105 40.1732 31.1061L40.4342 31.4166C40.1643 31.7016 39.8028 31.8655 39.4237 31.8748C39.247 31.8797 39.0711 31.8466 38.9066 31.7774C38.742 31.7083 38.5921 31.6045 38.4658 31.4722C38.3394 31.3399 38.2392 31.1819 38.1709 31.0074C38.1027 30.8329 38.0679 30.6455 38.0686 30.4564C38.0686 29.6628 38.6681 29.0533 39.4387 29.0533C39.8085 29.055 40.1633 29.2092 40.4296 29.4837L40.1735 29.8264C40.0808 29.718 39.9686 29.6307 39.8437 29.5698C39.7188 29.5088 39.5836 29.4754 39.4464 29.4716" fill="#004C97"/>
<path d="M43.239 30.791C43.239 31.4327 42.8184 31.8709 42.207 31.8709C41.5928 31.8709 41.1706 31.4327 41.1706 30.791C41.1706 30.1531 41.5928 29.7185 42.207 29.7185C42.8182 29.7185 43.239 30.1531 43.239 30.791ZM41.601 30.7992C41.601 31.2095 41.8495 31.4885 42.2071 31.4885C42.5609 31.4885 42.8108 31.2095 42.8108 30.7992C42.8108 30.3922 42.5609 30.1092 42.2071 30.1092C41.8495 30.1092 41.601 30.392 41.601 30.7992Z" fill="#004C97"/>
<path d="M46.1418 30.5359V31.8555H45.7135V30.6632C45.7195 30.5944 45.7114 30.525 45.6895 30.4599C45.6677 30.3949 45.6328 30.3358 45.5872 30.2867C45.5417 30.2377 45.4866 30.2 45.426 30.1763C45.3653 30.1526 45.3005 30.1434 45.2361 30.1495C45.0902 30.1473 44.9494 30.2068 44.8442 30.315C44.739 30.4233 44.678 30.5715 44.6744 30.7276V31.8554H44.2451V29.7349H44.6744V30.1414C44.8161 29.8468 45.0692 29.7188 45.4047 29.7188C45.8663 29.7188 46.1418 30.03 46.1418 30.5353" fill="#004C97"/>
<path d="M49.171 30.5359V31.8555H48.7423V30.6632C48.7482 30.5945 48.74 30.5252 48.7181 30.4602C48.6963 30.3952 48.6614 30.3362 48.6159 30.2872C48.5705 30.2382 48.5155 30.2005 48.4549 30.1767C48.3944 30.1529 48.3296 30.1436 48.2653 30.1495C48.1194 30.1471 47.9784 30.2065 47.8732 30.3148C47.768 30.4231 47.707 30.5715 47.7037 30.7276V31.8554H47.2744V29.7349H47.7037V30.1414C47.845 29.8468 48.0976 29.7188 48.4334 29.7188C48.895 29.7188 49.1711 30.03 49.1711 30.5353" fill="#004C97"/>
<path d="M52.0476 30.9704H50.5509C50.5764 31.123 50.6525 31.2606 50.7653 31.358C50.878 31.4554 51.0198 31.506 51.1646 31.5005C51.2686 31.5018 51.3717 31.4805 51.4678 31.438C51.5639 31.3955 51.6509 31.3325 51.7236 31.253L51.9507 31.5125C51.8454 31.6308 51.718 31.7239 51.5767 31.7857C51.4354 31.8475 51.2834 31.8765 51.1309 31.8709C50.52 31.8709 50.1178 31.4369 50.1178 30.7991C50.1111 30.656 50.1324 30.5129 50.1803 30.3791C50.2282 30.2453 50.3016 30.1236 50.396 30.0219C50.4903 29.9201 50.6034 29.8405 50.7281 29.7882C50.8529 29.7359 50.9864 29.712 51.1202 29.718C51.8166 29.718 52.0998 30.2047 52.0476 30.9699M51.6752 30.6356C51.6762 30.5595 51.6624 30.4841 51.6345 30.4141C51.6066 30.3442 51.5653 30.2812 51.5133 30.2294C51.4613 30.1775 51.3997 30.1379 51.3325 30.113C51.2654 30.0882 51.1941 30.0786 51.1232 30.085C50.9789 30.0794 50.8381 30.1335 50.73 30.236C50.6219 30.3385 50.5548 30.4816 50.5427 30.6356H51.6752Z" fill="#004C97"/>
<path d="M53.8852 30.1214C53.5421 30.1214 53.2967 30.3962 53.2967 30.7992C53.2967 31.2022 53.542 31.4768 53.8852 31.4768C53.9941 31.4831 54.103 31.4635 54.2039 31.4193C54.3048 31.3751 54.3953 31.3075 54.4688 31.2213L54.7079 31.4768C54.5287 31.7276 54.242 31.871 53.8663 31.871C53.7331 31.8781 53.5999 31.8553 53.4755 31.8039C53.351 31.7525 53.2381 31.6738 53.1438 31.5728C53.0496 31.4718 52.9762 31.3507 52.9285 31.2175C52.8807 31.0842 52.8596 30.9417 52.8666 30.7992C52.8666 30.1571 53.2767 29.7181 53.8663 29.7181C54.2239 29.7181 54.5029 29.8418 54.6855 30.0656L54.4515 30.3599C54.3779 30.2801 54.2895 30.2176 54.192 30.1765C54.0944 30.1353 53.99 30.1164 53.8852 30.121" fill="#004C97"/>
<path d="M56.835 31.7196C56.6891 31.8181 56.5207 31.8719 56.3482 31.875C56.0494 31.875 55.7928 31.6923 55.7928 31.2573V30.1572H55.5128V29.8149H55.7923V29.2328H56.2164V29.8149H56.8015V30.1572H56.2164V31.1738C56.2164 31.3923 56.2957 31.4608 56.4293 31.4608C56.5339 31.4546 56.6357 31.4232 56.7273 31.3687L56.835 31.7196Z" fill="#004C97"/>
<path d="M58.2509 29.3327C58.2494 29.3852 58.2335 29.436 58.2051 29.4788C58.1767 29.5217 58.1372 29.5546 58.0915 29.5735C58.0457 29.5925 57.9957 29.5965 57.9478 29.5853C57.8999 29.574 57.8562 29.5479 57.8221 29.5102C57.7879 29.4725 57.765 29.4248 57.756 29.3732C57.747 29.3216 57.7525 29.2683 57.7717 29.22C57.7909 29.1717 57.8229 29.1305 57.8638 29.1016C57.9048 29.0727 57.9528 29.0573 58.0018 29.0574C58.0354 29.0569 58.0687 29.0637 58.0997 29.0774C58.1307 29.0912 58.1587 29.1116 58.1821 29.1374C58.2054 29.1632 58.2236 29.1938 58.2354 29.2274C58.2472 29.261 58.2525 29.2969 58.2509 29.3327ZM58.2138 31.8556H57.7893V29.9385H58.2138V31.8556Z" fill="#004C97"/>
<path d="M61.2884 30.791C61.2884 31.4327 60.8675 31.8709 60.2564 31.8709C59.6423 31.8709 59.2205 31.4327 59.2205 30.791C59.2205 30.1531 59.6423 29.7185 60.2564 29.7185C60.867 29.7185 61.2884 30.1531 61.2884 30.791ZM59.6482 30.7992C59.6482 31.2095 59.8981 31.4885 60.2569 31.4885C60.6104 31.4885 60.8604 31.2095 60.8604 30.7992C60.8604 30.3922 60.6104 30.1092 60.2569 30.1092C59.8981 30.1092 59.6482 30.392 59.6482 30.7992Z" fill="#004C97"/>
<path d="M64.1911 30.5359V31.8555H63.7626V30.6632C63.7684 30.5944 63.7601 30.5252 63.7382 30.4602C63.7163 30.3953 63.6814 30.3362 63.6359 30.2873C63.5904 30.2383 63.5354 30.2006 63.4748 30.1768C63.4142 30.153 63.3495 30.1437 63.2852 30.1495C63.1392 30.1473 62.9983 30.2068 62.893 30.315C62.7877 30.4232 62.7265 30.5715 62.7227 30.7276V31.8554H62.2946V29.7349H62.7227V30.1414C62.8642 29.8468 63.1181 29.7188 63.4524 29.7188C63.9152 29.7188 64.1911 30.03 64.1911 30.5353" fill="#004C97"/>
</svg>
