<svg width="358" height="96" viewBox="0 0 358 96" fill="none" xmlns="http://www.w3.org/2000/svg">
<rect x="0.5" y="0.5" width="357" height="95" rx="3.5" fill="#EAF5FF"/>
<rect x="0.5" y="0.5" width="357" height="95" rx="3.5" stroke="#6791BB"/>
<rect x="8" y="8" width="10.2857" height="10.2857" rx="5.14286" fill="#004C97" fill-opacity="0.06"/>
<rect x="8" y="23.4286" width="10.2857" height="10.2857" rx="5.14286" fill="#004C97" fill-opacity="0.06"/>
<rect x="8" y="38.8571" width="10.2857" height="10.2857" rx="5.14286" fill="#004C97" fill-opacity="0.06"/>
<rect x="8" y="54.2857" width="10.2857" height="10.2857" rx="5.14286" fill="#004C97" fill-opacity="0.06"/>
<rect x="8" y="69.7143" width="10.2857" height="10.2857" rx="5.14286" fill="#004C97" fill-opacity="0.06"/>
<rect x="23.4286" y="54.2857" width="10.2857" height="10.2857" rx="5.14286" fill="#004C97" fill-opacity="0.06"/>
<rect x="38.8571" y="38.8571" width="10.2857" height="10.2857" rx="5.14286" fill="#004C97" fill-opacity="0.06"/>
<rect x="54.2857" y="23.4286" width="10.2857" height="10.2857" rx="5.14286" fill="#004C97" fill-opacity="0.06"/>
<rect x="69.7143" y="8" width="10.2857" height="10.2857" rx="5.14286" fill="#004C97" fill-opacity="0.06"/>
<rect x="23.4286" y="38.8571" width="10.2857" height="10.2857" rx="5.14286" fill="#004C97" fill-opacity="0.06"/>
<rect x="23.4286" y="23.4286" width="10.2857" height="10.2857" rx="5.14286" fill="#004C97" fill-opacity="0.06"/>
<rect x="23.4286" y="8" width="10.2857" height="10.2857" rx="5.14286" fill="#004C97" fill-opacity="0.06"/>
<rect x="38.8571" y="8" width="10.2857" height="10.2857" rx="5.14286" fill="#004C97" fill-opacity="0.06"/>
<rect x="38.8571" y="23.4286" width="10.2857" height="10.2857" rx="5.14286" fill="#004C97" fill-opacity="0.06"/>
<rect x="54.2857" y="8" width="10.2857" height="10.2857" rx="5.14286" fill="#004C97" fill-opacity="0.06"/>
<path d="M40.056 61.248V63.96H35.592V78H32.232V63.96H27.768V61.248H40.056ZM51.1476 78L47.4516 71.472H45.8676V78H42.5076V61.248H48.7956C50.0916 61.248 51.1956 61.48 52.1076 61.944C53.0196 62.392 53.6996 63.008 54.1476 63.792C54.6116 64.56 54.8436 65.424 54.8436 66.384C54.8436 67.488 54.5236 68.488 53.8836 69.384C53.2436 70.264 52.2916 70.872 51.0276 71.208L55.0356 78H51.1476ZM45.8676 68.952H48.6756C49.5876 68.952 50.2676 68.736 50.7156 68.304C51.1636 67.856 51.3876 67.24 51.3876 66.456C51.3876 65.688 51.1636 65.096 50.7156 64.68C50.2676 64.248 49.5876 64.032 48.6756 64.032H45.8676V68.952ZM61.2426 61.248V78H57.8826V61.248H61.2426ZM76.7783 66.432C76.7783 67.328 76.5623 68.168 76.1302 68.952C75.7143 69.736 75.0503 70.368 74.1383 70.848C73.2423 71.328 72.1063 71.568 70.7303 71.568H67.9223V78H64.5623V61.248H70.7303C72.0263 61.248 73.1303 61.472 74.0423 61.92C74.9543 62.368 75.6343 62.984 76.0823 63.768C76.5463 64.552 76.7783 65.44 76.7783 66.432ZM70.5863 68.856C71.5143 68.856 72.2023 68.648 72.6503 68.232C73.0983 67.8 73.3223 67.2 73.3223 66.432C73.3223 64.8 72.4103 63.984 70.5863 63.984H67.9223V68.856H70.5863ZM84.9478 78.168C83.7798 78.168 82.7238 77.968 81.7798 77.568C80.8518 77.168 80.1158 76.592 79.5718 75.84C79.0278 75.088 78.7478 74.2 78.7318 73.176H82.3318C82.3798 73.864 82.6198 74.408 83.0518 74.808C83.4998 75.208 84.1078 75.408 84.8758 75.408C85.6598 75.408 86.2758 75.224 86.7238 74.856C87.1718 74.472 87.3958 73.976 87.3958 73.368C87.3958 72.872 87.2438 72.464 86.9398 72.144C86.6358 71.824 86.2518 71.576 85.7878 71.4C85.3398 71.208 84.7158 71 83.9158 70.776C82.8278 70.456 81.9398 70.144 81.2518 69.84C80.5798 69.52 79.9958 69.048 79.4998 68.424C79.0198 67.784 78.7798 66.936 78.7798 65.88C78.7798 64.888 79.0278 64.024 79.5238 63.288C80.0198 62.552 80.7158 61.992 81.6118 61.608C82.5078 61.208 83.5318 61.008 84.6838 61.008C86.4118 61.008 87.8118 61.432 88.8838 62.28C89.9718 63.112 90.5718 64.28 90.6838 65.784H86.9878C86.9558 65.208 86.7078 64.736 86.2438 64.368C85.7958 63.984 85.1958 63.792 84.4438 63.792C83.7878 63.792 83.2598 63.96 82.8598 64.296C82.4758 64.632 82.2838 65.12 82.2838 65.76C82.2838 66.208 82.4278 66.584 82.7158 66.888C83.0198 67.176 83.3878 67.416 83.8198 67.608C84.2678 67.784 84.8918 67.992 85.6918 68.232C86.7798 68.552 87.6678 68.872 88.3558 69.192C89.0438 69.512 89.6358 69.992 90.1318 70.632C90.6278 71.272 90.8758 72.112 90.8758 73.152C90.8758 74.048 90.6438 74.88 90.1798 75.648C89.7158 76.416 89.0358 77.032 88.1398 77.496C87.2438 77.944 86.1798 78.168 84.9478 78.168Z" fill="#004C97"/>
<path d="M320.172 50.0007L315.222 45.0509L316.636 43.6367L323 50.0007L316.636 56.3646L315.222 54.9504L320.172 50.0007Z" fill="#004C97"/>
</svg>
